<?xml version="1.0" standalone="no"?>
<!DOCTYPE svg PUBLIC "-//W3C//DTD SVG 20010904//EN"
 "http://www.w3.org/TR/2001/REC-SVG-20010904/DTD/svg10.dtd">
<svg version="1.0" xmlns="http://www.w3.org/2000/svg"
 width="732.000000pt" height="341.000000pt" viewBox="0 0 732.000000 341.000000"
 preserveAspectRatio="xMidYMid meet">

<g transform="translate(0.000000,341.000000) scale(0.100000,-0.100000)"
fill="#26272B" stroke="none">
<path d="M0 2001 c0 -1315 1 -1390 18 -1395 95 -28 2316 -576 2334 -576 14 0
159 33 324 74 299 74 489 120 1414 347 272 67 511 121 531 121 20 -1 124 -20
230 -42 274 -59 521 -111 844 -180 275 -58 907 -193 1055 -224 41 -9 127 -27
190 -41 263 -56 347 -75 363 -81 16 -6 17 75 17 1233 l0 1240 -152 45 c-84 25
-274 83 -423 128 -148 45 -342 103 -430 130 -88 27 -259 78 -380 115 -602 182
-865 261 -1017 307 l-167 49 -193 -35 c-106 -19 -283 -51 -393 -71 -110 -20
-261 -47 -335 -60 -207 -37 -506 -91 -700 -125 -96 -17 -247 -44 -335 -60 -88
-16 -252 -45 -365 -65 -113 -20 -227 -41 -253 -47 -64 -14 -85 -10 -363 72
-401 118 -425 125 -889 260 -571 166 -817 238 -907 266 -17 5 -18 -65 -18
-1385z"/>
</g>
</svg>
