<?xml version="1.0" standalone="no"?>
<!DOCTYPE svg PUBLIC "-//W3C//DTD SVG 20010904//EN"
 "http://www.w3.org/TR/2001/REC-SVG-20010904/DTD/svg10.dtd">
<svg version="1.0" xmlns="http://www.w3.org/2000/svg"
 width="732.000000pt" height="341.000000pt" viewBox="0 0 732.000000 341.000000"
 preserveAspectRatio="xMidYMid meet">

<g transform="translate(0.000000,341.000000) scale(0.100000,-0.100000)"
fill="#26272B" stroke="none">
<path d="M4790 2620 c-129 -15 -323 -37 -430 -49 -107 -12 -249 -28 -315 -36
-66 -8 -203 -24 -305 -35 -102 -11 -345 -38 -540 -60 -444 -50 -946 -106
-1810 -200 l-385 -42 -502 170 -503 170 0 -844 0 -844 22 -4 c13 -3 174 -24
358 -46 184 -23 452 -57 594 -74 l260 -33 60 19 c53 16 348 83 896 205 236 52
369 81 955 212 297 66 566 124 598 130 50 9 117 4 455 -34 218 -25 539 -61
712 -80 173 -18 581 -64 905 -100 325 -36 669 -75 765 -85 96 -11 296 -33 444
-50 148 -16 275 -30 282 -30 12 0 14 105 14 650 0 358 -1 650 -3 650 -2 0
-161 34 -353 75 -192 42 -401 87 -464 100 -63 13 -187 40 -275 59 -88 19 -268
57 -400 86 -132 28 -343 73 -470 101 -126 27 -252 48 -280 48 -27 -1 -156 -14
-285 -29z"/>
</g>
</svg>
